<svg width="30" height="31" viewBox="0 0 30 31" fill="none" xmlns="http://www.w3.org/2000/svg">
<path d="M21.5389 0.511719H7.99439C3.58621 0.511719 0 4.09606 0 8.50194V22.0396C0 26.4453 3.58621 30.0296 7.99439 30.0296H21.5391C25.9471 30.0296 29.5333 26.4453 29.5333 22.0396V8.50194C29.5333 4.09606 25.9471 0.511719 21.5389 0.511719V0.511719ZM27.8019 22.0396C27.8019 25.4911 24.9924 28.2991 21.5389 28.2991H7.99439C4.54089 28.2991 1.73137 25.4911 1.73137 22.0396V8.50194C1.73137 5.05025 4.54089 2.24218 7.99439 2.24218H21.5391C24.9924 2.24218 27.8019 5.05025 27.8019 8.50194V22.0396Z" fill="white"/>
<path d="M14.7666 7.19971C10.3138 7.19971 6.69135 10.8203 6.69135 15.2708C6.69135 19.7213 10.3138 23.3419 14.7666 23.3419C19.2194 23.3419 22.8419 19.7213 22.8419 15.2708C22.8419 10.8203 19.2194 7.19971 14.7666 7.19971ZM14.7666 21.6114C11.2687 21.6114 8.42271 18.7671 8.42271 15.2708C8.42271 11.7747 11.2687 8.93017 14.7666 8.93017C18.2647 8.93017 21.1105 11.7747 21.1105 15.2708C21.1105 18.7671 18.2647 21.6114 14.7666 21.6114Z" fill="white"/>
<path d="M23.035 4.33325C21.7191 4.33325 20.6488 5.40319 20.6488 6.71816C20.6488 8.03335 21.7191 9.10329 23.035 9.10329C24.3508 9.10329 25.4213 8.03335 25.4213 6.71816C25.4213 5.40297 24.3508 4.33325 23.035 4.33325ZM23.035 7.3726C22.674 7.3726 22.3802 7.07894 22.3802 6.71816C22.3802 6.35716 22.674 6.06372 23.035 6.06372C23.3961 6.06372 23.69 6.35716 23.69 6.71816C23.69 7.07894 23.3961 7.3726 23.035 7.3726Z" fill="white"/>
</svg>
