<svg width="31" height="30" viewBox="0 0 31 30" fill="none" xmlns="http://www.w3.org/2000/svg">
<path d="M25.9083 4.25024C23.2031 1.54644 19.6072 0.0576172 15.7812 0.0576172C15.781 0.0576172 15.7801 0.0576172 15.7799 0.0576172C13.8876 0.0578424 12.0436 0.424024 10.2994 1.14625C8.55493 1.86848 6.9921 2.91275 5.65392 4.25024C2.94893 6.95382 1.45934 10.5485 1.45934 14.372C1.45934 16.6522 2.0098 18.9182 3.05281 20.9372L0.645475 27.8109C0.475808 28.2957 0.595904 28.8227 0.959572 29.186C1.21396 29.4404 1.54879 29.5756 1.89308 29.5756C2.04066 29.5756 2.18983 29.5508 2.33538 29.4999L9.21264 27.094C11.2326 28.1365 13.4998 28.6867 15.7812 28.6867C19.6067 28.6867 23.2031 27.1976 25.9083 24.4941C28.6133 21.7905 30.1031 18.1958 30.1031 14.3723C30.1031 10.5485 28.6135 6.95382 25.9083 4.25024ZM24.6834 23.2698C22.3056 25.6467 19.1439 26.9553 15.7812 26.9553C13.724 26.9553 11.6804 26.4468 9.87103 25.4843C9.54296 25.31 9.15518 25.28 8.80706 25.4019L2.5589 27.5875L4.74587 21.3426C4.86777 20.9942 4.83758 20.6066 4.66318 20.2789C3.70038 18.471 3.19138 16.4284 3.19138 14.372C3.19138 11.0111 4.50095 7.85103 6.87876 5.47445C9.25635 3.0981 12.4176 1.78921 15.7801 1.78876H15.7812C19.1441 1.78876 22.3056 3.09765 24.6834 5.47445C27.0615 7.85103 28.371 11.0109 28.371 14.372C28.371 17.7332 27.0615 20.8933 24.6834 23.2698Z" fill="white"/>
<path d="M21.1038 15.6508C20.4449 14.9923 19.3728 14.9923 18.714 15.6508L17.9934 16.371C16.2041 15.3966 14.7562 13.9494 13.781 12.1611L14.5016 11.4409C15.1607 10.7824 15.1607 9.71085 14.5016 9.05236L12.5598 7.11155C11.901 6.45305 10.8289 6.45305 10.17 7.11155L8.61667 8.66411C7.72688 9.55344 7.68249 11.0823 8.49162 12.9693C9.19417 14.6077 10.4799 16.4084 12.1119 18.0396C13.7439 19.6707 15.5455 20.9557 17.1847 21.6579C18.0818 22.0421 18.8976 22.2338 19.6027 22.2338C20.3816 22.2338 21.0251 21.9998 21.4922 21.5329L23.0456 19.9802V19.9804C23.3649 19.6613 23.5406 19.2372 23.5406 18.7861C23.5406 18.3348 23.3649 17.9108 23.0456 17.5919L21.1038 15.6508ZM20.2674 20.3087C20.0134 20.5625 19.2325 20.6515 17.8672 20.0669C16.4256 19.4494 14.8166 18.2945 13.3367 16.8154C11.8568 15.3362 10.7016 13.7283 10.0837 12.2874C9.49858 10.9229 9.58758 10.1421 9.84152 9.88831L11.3651 8.36548L13.247 10.2466L12.3451 11.1483C11.9372 11.556 11.8388 12.1741 12.1004 12.6867C13.2862 15.0108 15.1422 16.8658 17.4675 18.0511C17.9806 18.3125 18.5991 18.2143 19.0069 17.8065L19.9089 16.905L21.791 18.7861L20.2674 20.3087Z" fill="white"/>
</svg>
